<svg xmlns="http://www.w3.org/2000/svg" viewBox="0 0 1550.7 370.6"><defs><style>.cls-1{fill:#50d699;}.cls-2{fill:#3cc687;}.cls-3{font-size:228.86px;}.cls-3,.cls-5{fill:#020202;font-family:Satoshi-Bold, Satoshi;font-weight:700;}.cls-4{letter-spacing:-0.02em;}.cls-5{font-size:40px;}.cls-6{letter-spacing:-0.03em;}.cls-7{letter-spacing:-0.01em;}.cls-8{letter-spacing:-0.02em;}.cls-9{letter-spacing:-0.03em;}.cls-10{letter-spacing:-0.01em;}.cls-11{letter-spacing:0em;}</style></defs><g id="Layer_2" data-name="Layer 2"><g id="Layer_1-2" data-name="Layer 1"><path class="cls-1" d="M252.22,25.82c12.38,0,22.49,5.8,28.66,16.49,6.66,11.55,6.51,23.66-.73,36.46L269.62,97.61,193,97.51l.25-71.83Z"/><path class="cls-2" d="M268.87,51.77c.14-9.74-2.43-18.11-7.46-24.91,0,0,11.53,1.28,68.65,41,5.87,4.09,9.38,9,9.34,15.45l-.32,39.19,24.93.11L302.72,158l-60-37,25,.58Z"/><path class="cls-1" d="M336.87,258.81c0,12.39-5.8,22.5-16.49,28.67-11.56,6.66-23.66,6.5-36.46-.74l-18.84-10.52.1-76.64,71.82.24Z"/><path class="cls-2" d="M310.91,275.46c9.75.15,18.12-2.42,24.92-7.46,0,0-1.28,11.53-41,68.66-4.09,5.87-9,9.37-15.45,9.34l-39.19-.32-.11,24.92L204.7,309.32l37-60-.57,25Z"/><path class="cls-1" d="M111.79,344.2c-12.39,0-22.5-5.79-28.66-16.49-6.67-11.55-6.51-23.66.73-36.46l10.53-18.83,76.64.1-.25,71.82Z"/><path class="cls-2" d="M95.14,318.25c-.15,9.75,2.43,18.12,7.46,24.91,0,0-11.53-1.28-68.65-41-5.88-4.08-9.38-9-9.35-15.44l.32-39.2L0,247.39,61.29,212l60,37-25-.58Z"/><path class="cls-1" d="M27.78,111.79c0-12.39,5.79-22.5,16.49-28.66,11.55-6.67,23.66-6.51,36.46.73L99.56,94.39,99.46,171l-71.82-.25Z"/><path class="cls-2" d="M53.73,95.14C44,95,35.61,97.57,28.82,102.6c0,0,1.28-11.53,41-68.65,4.08-5.88,9-9.38,15.45-9.35l39.19.32L124.59,0,160,61.29l-37,60,.58-25Z"/><text class="cls-3" transform="translate(424.02 260.92)">G<tspan class="cls-4" x="178.97" y="0">r</tspan><tspan x="265.02" y="0">eenloop</tspan></text><text class="cls-5" transform="translate(928.78 313.25)"><tspan class="cls-6">R</tspan><tspan x="25.4" y="0">e</tspan><tspan class="cls-7" x="47.68" y="0">c</tspan><tspan class="cls-8" x="69.28" y="0">y</tspan><tspan x="89.55" y="0">cl</tspan><tspan class="cls-9" x="121.59" y="0">e</tspan><tspan x="142.67" y="0">. Connec</tspan><tspan class="cls-9" x="310.69" y="0">t</tspan><tspan x="323.09" y="0">. S</tspan><tspan class="cls-10" x="369.21" y="0">u</tspan><tspan x="392.13" y="0">s</tspan><tspan class="cls-11" x="410.65" y="0">t</tspan><tspan x="424.13" y="0">ain.</tspan></text></g></g></svg>